<svg xmlns="http://www.w3.org/2000/svg" viewBox="0 0 719.5652 784.2664">
  <defs>
    <style>
      .cls-1 {
        fill: #5876f4;
      }
    </style>
  </defs>
  <g id="Capa_2" data-name="Capa 2">
    <g id="Capa_2-2" data-name="Capa 2">
      <g>
        <path class="cls-1" d="M392.2921,715.2693c-.689-6.4488-1.8891-12.89-3.088-19.2518Q364.0809,562.716,338.9579,429.4144c-.556-2.95-1.1631-6.0192-2.9816-8.4083-2.3148-3.0411-6.1483-4.4283-9.7652-5.6628q-39.0611-13.3328-78.1659-26.5372-19.5523-6.6023-39.1155-13.1723c-4.3854-1.4728-10.4959-5.1335-14.9177-2.2965-5.1374,3.2962-9.8938,7.5143-14.7834,11.1794L113.02,434.146,46.8109,483.7752l-8.6071,6.4518c-10.9244,8.1887-22.0877,16.63-29.4551,28.1245-12.4306,19.3934-11.53,46.43,2.1628,64.9536s39.2769,27.3135,61.4631,21.1171c13.8737-3.8748,25.7087-12.7727,37.18-21.4856l98.8774-75.1049c5.8979-4.48,13.4892-9.1823,20.188-6.0231,5.8182,2.744,7.6577,9.9776,8.8292,16.3028q18.4485,99.599,36.8969,199.198c2.5427,13.7275,5.2161,27.8047,12.5062,39.7112,12.0183,19.6287,36.73,30.5933,59.3482,26.3327s41.6468-23.4647,45.7-46.1208A77.5377,77.5377,0,0,0,392.2921,715.2693Z"/>
        <path class="cls-1" d="M624.0032,211.7716c-5.2374,3.8251-10.2125,8.0887-15.1192,12.3117L403.2565,401.0557c-2.2757,1.9585-4.6282,4.02-5.7859,6.7907-1.4736,3.5263-.7551,7.5392-.0129,11.2883q8.0148,40.4881,16.1626,80.95,4.0739,20.2308,8.181,40.4549c.9207,4.5336.8111,11.6559,5.4808,14.0632,5.4253,2.7969,11.458,4.8025,17.0788,7.2L520.47,594.269,596.58,626.7351l9.8942,4.2205c12.5579,5.3569,25.4543,10.794,39.0928,11.4169,23.0113,1.051,45.9647-13.2644,55.1439-34.3918s3.9794-47.6745-12.4922-63.7777c-10.3-10.07-23.9279-15.86-37.2131-21.4272L536.4871,474.785c-6.8308-2.8626-14.7021-7.08-15.3211-14.46-.5376-6.41,4.8032-11.6241,9.692-15.805L684.82,312.85c10.61-9.0739,21.4576-18.436,28.1145-30.7077,10.9744-20.2309,8.0937-47.1121-6.9184-64.5582s-41.1629-24.3036-62.8043-16.4691A77.5375,77.5375,0,0,0,624.0032,211.7716Z"/>
        <path class="cls-1" d="M73.07,259.362c5.8842,2.7274,12.0248,5.0127,18.0967,7.258l254.4569,94.0935c2.8161,1.0413,5.76,2.1,8.744,1.77,3.7987-.42,6.9606-2.9934,9.88-5.4595q31.5309-26.6334,62.9742-53.37,15.7216-13.3685,31.4213-26.7626c3.5193-3.0026,9.8024-6.3586,9.6449-11.61-.1829-6.1011-1.3524-12.35-1.9793-18.4285l-8.4884-82.3081-8.4883-82.3081-1.1035-10.7c-1.4006-13.5807-2.8949-27.4964-8.96-39.7279C429.0358,11.1709,405.39-1.9686,382.4606.2417s-43.63,19.6248-49.7324,41.8371c-3.8161,13.89-2.276,28.6164-.7071,42.9353q6.7619,61.7144,13.5236,123.4285c.8067,7.3624.9328,16.2913-5.223,20.41-5.3465,3.577-12.4956,1.4323-18.522-.8177L132.0091,157.1772c-13.0792-4.883-26.5255-9.834-40.4859-9.7093-23.0149.2056-45.1319,15.7534-53.1164,37.34S37.098,232.592,54.4394,247.7249A77.5361,77.5361,0,0,0,73.07,259.362Z"/>
      </g>
    </g>
  </g>
</svg>
